<svg xmlns="http://www.w3.org/2000/svg" viewBox="0 0 1200 80" preserveAspectRatio="none">
<rect width="1200" height="80" fill="#e9edf7"/>
<g fill="#cbd5e1">
<rect x="10" y="20" width="40" height="60"/><rect x="70" y="10" width="30" height="70"/>
<rect x="115" y="25" width="55" height="55"/><rect x="190" y="5" width="38" height="75"/>
<rect x="245" y="18" width="30" height="62"/><rect x="290" y="8" width="42" height="72"/>
<rect x="345" y="24" width="50" height="56"/><rect x="410" y="14" width="36" height="66"/>
<rect x="460" y="28" width="62" height="52"/><rect x="540" y="12" width="36" height="68"/>
<rect x="590" y="18" width="28" height="62"/><rect x="630" y="6" width="40" height="74"/>
<rect x="690" y="22" width="48" height="58"/><rect x="750" y="16" width="36" height="64"/>
<rect x="800" y="30" width="44" height="50"/><rect x="860" y="18" width="32" height="62"/>
<rect x="905" y="8" width="40" height="72"/><rect x="960" y="26" width="52" height="54"/>
<rect x="1030" y="20" width="36" height="60"/><rect x="1080" y="12" width="42" height="68"/>
<rect x="1135" y="24" width="36" height="56"/>
</g></svg>