
<svg xmlns="http://www.w3.org/2000/svg" width="1600" height="500" viewBox="0 0 1600 500">
  <defs>
    <linearGradient id="sky" x1="0" y1="0" x2="0" y2="1">
      <stop offset="0%" stop-color="#a8c3ff"/>
      <stop offset="100%" stop-color="#e5ebf5"/>
    </linearGradient>
  </defs>
  <rect width="100%" height="100%" fill="url(#sky)"/>
  <rect y="380" width="100%" height="120" fill="#1f2937" />
  <g fill="#0f172a">
    <rect x="50" y="300" width="60" height="80"/>
    <rect x="140" y="260" width="70" height="120"/>
    <rect x="240" y="280" width="50" height="100"/>
    <rect x="320" y="240" width="55" height="140"/>
    <rect x="420" y="250" width="45" height="130"/>
    <rect x="500" y="220" width="35" height="160"/>
    <rect x="580" y="270" width="65" height="110"/>
    <rect x="670" y="260" width="40" height="120"/>
    <rect x="740" y="210" width="30" height="170"/>
    <rect x="820" y="230" width="40" height="150"/>
    <rect x="900" y="260" width="60" height="120"/>
    <rect x="980" y="250" width="50" height="130"/>
    <rect x="1060" y="270" width="80" height="110"/>
    <rect x="1160" y="230" width="36" height="150"/>
    <rect x="1240" y="260" width="44" height="120"/>
    <rect x="1320" y="240" width="60" height="140"/>
  </g>
</svg>
